<?xml version="1.0" encoding="UTF-8"?>
<svg version="1.1" xmlns="http://www.w3.org/2000/svg" width="80" height="96">
<path d="M0 0 C0.66 0 1.32 0 2 0 C2.59941406 0.60972656 3.19882813 1.21945313 3.81640625 1.84765625 C6.12262765 4.12087269 7.98431616 5.15408627 10.9375 6.4375 C11.89914062 6.85902344 12.86078125 7.28054687 13.8515625 7.71484375 C17.14512166 9.059237 20.47093901 10.28036847 23.8125 11.5 C29.65925626 13.71510124 34.08111904 15.77279112 37.375 21.3125 C37.58125 21.869375 37.7875 22.42625 38 23 C39.98 22.01 41.96 21.02 44 20 C42.68 19.01 41.36 18.02 40 17 C44.9160693 13.48852193 49.61571767 11.33630422 55.375 9.5625 C61.10606679 7.79258033 66.03181132 5.5436347 71.046875 2.234375 C73 1 73 1 76 0 C75.25626534 7.43734656 71.59789586 14.18501406 67 20 C62.05375334 23.08386415 57.54223237 23.65350106 51.875 24.125 C50.28884175 24.27105981 48.70289321 24.41941897 47.1171875 24.5703125 C46.42222168 24.62977051 45.72725586 24.68922852 45.01123047 24.75048828 C42.9464162 25.00664757 41.00627671 25.4552866 39 26 C39.495 29.465 39.495 29.465 40 33 C36.35042135 35.33573034 33.26089509 35.45652447 29 35 C26.5625 33.125 26.5625 33.125 25 31 C25 30.34 25 29.68 25 29 C25.969375 28.71125 26.93875 28.4225 27.9375 28.125 C31.10664203 27.35785318 31.10664203 27.35785318 32 25 C30.99839844 24.96261719 29.99679688 24.92523438 28.96484375 24.88671875 C12.98419832 24.16589305 12.98419832 24.16589305 7.8828125 18.75390625 C2.81182181 12.68134978 -0.37721512 8.11012517 0 0 Z " fill="#FFFFFF" transform="translate(2,55)"/>
<path d="M0 0 C9.89198486 7.06570347 13.48667916 17.44661941 16 29 C16.49708198 32.33337328 16.84487433 35.63377288 17 39 C15.35 39.66 13.7 40.32 12 41 C3.15210763 28.68592298 -2.17867627 16.35020259 -1 1 C-0.67 0.67 -0.34 0.34 0 0 Z " fill="#FFFFFF" transform="translate(20,14)"/>
<path d="M0 0 C0.86018344 16.15233344 -4.28685627 27.29606502 -12 41 C-13.98 40.34 -15.96 39.68 -18 39 C-12.31635071 -0 -12.31635071 -0 0 0 Z " fill="#FEFEFE" transform="translate(60,14)"/>
<path d="M0 0 C0.66 0 1.32 0 2 0 C4.07567561 5.97168578 4.3113192 11.39421418 4.25 17.6875 C4.24468262 18.65977539 4.23936523 19.63205078 4.23388672 20.63378906 C3.99154979 39.00845021 3.99154979 39.00845021 0 43 C-2.97981424 28.66851248 -5.67107381 14.04265896 0 0 Z " fill="#FFFFFF" transform="translate(39,2)"/>
<path d="M0 0 C10.17050358 -0.75337064 17.42252547 3.15901593 25.3828125 9.21875 C27 11 27 11 27 15 C26.67 15.66 26.34 16.32 26 17 C16.34277576 15.56052695 7.02570469 10.23969219 1.0390625 2.6015625 C0 1 0 1 0 0 Z " fill="#FFFFFF" transform="translate(0,46)"/>
<path d="M0 0 C-4.19848295 8.65937109 -11.75824844 12.72575578 -20.36328125 16.15234375 C-23 17 -23 17 -26 17 C-26.66 15.35 -27.32 13.7 -28 12 C-19.04908546 4.62378339 -11.82366989 -0.22737827 0 0 Z " fill="#FFFFFF" transform="translate(79,46)"/>
<path d="M0 0 C9.42448227 3.96820306 15.3770405 10.92451269 20 20 C20 20.66 20 21.32 20 22 C10.88198782 17.79815107 4.16665782 11.11244678 0 2 C0 1.34 0 0.68 0 0 Z " fill="#FFFFFF" transform="translate(6,30)"/>
<path d="M0 0 C-2.16922087 9.64098165 -10.39120784 15.47888097 -18 21 C-18.66 20.67 -19.32 20.34 -20 20 C-8.10126582 0 -8.10126582 0 0 0 Z " fill="#FFFFFF" transform="translate(73,31)"/>
</svg>
